<svg width="86" height="86" viewBox="0 0 86 86" fill="none" xmlns="http://www.w3.org/2000/svg">
<path d="M44.8244 34.0587L73.8616 48.9403C76.7625 50.4269 76.7625 54.573 73.8616 56.0597L44.8244 70.9413C43.679 71.5284 42.321 71.5284 41.1756 70.9413L12.1384 56.0597C9.23752 54.5731 9.23752 50.427 12.1384 48.9403L41.1756 34.0587C42.321 33.4716 43.679 33.4716 44.8244 34.0587Z" stroke="#5528FF" stroke-width="2"/>
<path d="M44.8244 24.0587L73.8616 38.9403C76.7625 40.4269 76.7625 44.573 73.8616 46.0597L44.8244 60.9413C43.679 61.5284 42.321 61.5284 41.1756 60.9413L12.1384 46.0597C9.23752 44.5731 9.23752 40.427 12.1384 38.9403L41.1756 24.0587C42.321 23.4716 43.679 23.4716 44.8244 24.0587Z" fill="white" stroke="#5528FF" stroke-width="2"/>
<path d="M44.8244 14.0587L73.8616 28.9403C76.7625 30.4269 76.7625 34.573 73.8616 36.0597L44.8244 50.9413C43.679 51.5284 42.321 51.5284 41.1756 50.9413L12.1384 36.0597C9.23752 34.5731 9.23752 30.427 12.1384 28.9403L41.1756 14.0587C42.321 13.4716 43.679 13.4716 44.8244 14.0587Z" fill="white" stroke="#5528FF" stroke-width="2"/>
</svg>
