<svg width="86" height="86" viewBox="0 0 86 86" fill="none" xmlns="http://www.w3.org/2000/svg">
<path fill-rule="evenodd" clip-rule="evenodd" d="M55 15H31C29.3431 15 28 16.3431 28 18V68C28 69.6569 29.3431 71 31 71H55C56.6569 71 58 69.6569 58 68V18C58 16.3431 56.6569 15 55 15ZM31 13C28.2386 13 26 15.2386 26 18V68C26 70.7614 28.2386 73 31 73H55C57.7614 73 60 70.7614 60 68V18C60 15.2386 57.7614 13 55 13H31Z" fill="#5528FF"/>
<rect x="28" y="19.0554" width="30" height="2" fill="#5528FF"/>
<rect x="28" y="64.9934" width="30" height="2" fill="#5528FF"/>
<circle cx="43" cy="69.0117" r="1" fill="#5528FF"/>
</svg>
