<svg width="86" height="86" viewBox="0 0 86 86" fill="none" xmlns="http://www.w3.org/2000/svg">
<path fill-rule="evenodd" clip-rule="evenodd" d="M28 13C25.2386 13 23 15.2385 23 18V68C23 70.7615 25.2386 73 28 73H50.929C52.255 73 53.5267 72.4731 54.4645 71.5356L61.5355 64.4644C62.4733 63.5269 63 62.2551 63 60.929V18C63 15.2385 60.7615 13 58 13H28ZM30 71C27.2386 71 25 68.7615 25 66V20C25 17.2385 27.2386 15 30 15H56C58.7615 15 61 17.2385 61 20V60.1006C61 60.4048 60.9723 60.7061 60.9182 61.0012H51.9716C51.4193 61.0012 50.9716 61.449 50.9716 62.0012V70.9236C50.6859 70.9741 50.3945 71 50.1005 71H30ZM52.9939 70.0779C53.2213 69.9165 53.4363 69.7354 53.636 69.5356L59.5355 63.636C59.7334 63.438 59.913 63.2253 60.0732 63.0002L53.9746 63.001C53.4211 63.0012 52.973 63.4507 52.9747 64.0042L52.9939 70.0779ZM40 24C40 23.4478 40.4478 23 41 23H55C55.5522 23 56 23.4478 56 24C56 24.5522 55.5522 25 55 25H41C40.4478 25 40 24.5522 40 24ZM40 32.0005C39.4478 32.0005 39 32.4482 39 33.0005C39 33.5527 39.4478 34.0005 40 34.0005H55C55.5522 34.0005 56 33.5527 56 33.0005C56 32.4482 55.5522 32.0005 55 32.0005H40ZM39 43C39 42.4478 39.4478 42 40 42H55C55.5522 42 56 42.4478 56 43C56 43.5522 55.5522 44 55 44H40C39.4478 44 39 43.5522 39 43ZM40 51.9985C39.4478 51.9985 39 52.4463 39 52.9985C39 53.5508 39.4478 53.9985 40 53.9985H55C55.5522 53.9985 56 53.5508 56 52.9985C56 52.4463 55.5522 51.9985 55 51.9985H40ZM32.1216 26.6799L32.1283 26.6868C32.1771 26.7356 32.2297 26.7783 32.2852 26.8149C32.6733 27.0713 33.2008 27.0286 33.5425 26.6868L39.1993 21.03C39.5898 20.6394 39.5898 20.0063 39.1993 19.6157C38.8088 19.2253 38.1757 19.2253 37.7852 19.6157L32.8354 24.5654L30.7141 22.4441C30.3236 22.0537 29.6904 22.0537 29.2999 22.4441C28.9094 22.8347 28.9094 23.4678 29.2999 23.8584L32.1216 26.6799ZM31.007 31.0161H35.007V35.0161H31.007V31.0161ZM29.007 31.0161C29.007 29.9116 29.9025 29.0161 31.007 29.0161H35.007C36.1116 29.0161 37.0071 29.9116 37.0071 31.0161V35.0161C37.0071 36.1206 36.1116 37.0161 35.007 37.0161H31.007C29.9025 37.0161 29.007 36.1206 29.007 35.0161V31.0161ZM35.007 41H31.007V45H35.007V41ZM31.007 39C29.9025 39 29.007 39.8955 29.007 41V45C29.007 46.1045 29.9025 47 31.007 47H35.007C36.1116 47 37.0071 46.1045 37.0071 45V41C37.0071 39.8955 36.1116 39 35.007 39H31.007ZM31.0148 50.9985H35.0148V54.9985H31.0148V50.9985ZM29.0148 50.9985C29.0148 49.894 29.9103 48.9985 31.0148 48.9985H35.0148C36.1194 48.9985 37.0149 49.894 37.0149 50.9985V54.9985C37.0149 56.103 36.1194 56.9985 35.0148 56.9985H31.0148C29.9103 56.9985 29.0148 56.103 29.0148 54.9985V50.9985ZM39 63.0005C39 62.4482 39.4478 62.0005 40 62.0005H48C48.5522 62.0005 49 62.4482 49 63.0005C49 63.5527 48.5522 64.0005 48 64.0005H40C39.4478 64.0005 39 63.5527 39 63.0005ZM31.0148 61.0005H35.0148V65.0005H31.0148V61.0005ZM29.0148 61.0005C29.0148 59.896 29.9103 59.0005 31.0148 59.0005H35.0148C36.1194 59.0005 37.0149 59.896 37.0149 61.0005V65.0005C37.0149 66.105 36.1194 67.0005 35.0148 67.0005H31.0148C29.9103 67.0005 29.0148 66.105 29.0148 65.0005V61.0005Z" fill="#5528FF"/>
</svg>
