<svg width="86" height="86" viewBox="0 0 86 86" fill="none" xmlns="http://www.w3.org/2000/svg">
<path fill-rule="evenodd" clip-rule="evenodd" d="M8 15H78C79.6569 15 81 16.3431 81 18V55H5V18C5 16.3431 6.34315 15 8 15ZM83 57V55V18C83 15.2386 80.7614 13 78 13H8C5.23858 13 3 15.2386 3 18V55V57V58C3 60.7614 5.23858 63 8 63H42V71H29C28.4478 71 28 71.4478 28 72C28 72.5522 28.4478 73 29 73H57C57.5522 73 58 72.5522 58 72C58 71.4478 57.5522 71 57 71H44V63H78C80.7614 63 83 60.7614 83 58V57ZM5 58V57H81V58C81 59.6569 79.6569 61 78 61H8C6.34315 61 5 59.6569 5 58ZM43 60C43.5523 60 44 59.5523 44 59C44 58.4477 43.5523 58 43 58C42.4477 58 42 58.4477 42 59C42 59.5523 42.4477 60 43 60Z" fill="#5528FF"/>
</svg>
